HIERARCHY
ROOT hip
{
  OFFSET 0 0 0
  CHANNELS 6 Xposition Yposition Zposition Zrotation Yrotation Xrotation
  JOINT abdomen
  {
    OFFSET 0 20.6881 -0.73152
    CHANNELS 3 Zrotation Xrotation Yrotation
    JOINT chest
    {
      OFFSET 0 11.7043 -0.48768
      CHANNELS 3 Zrotation Xrotation Yrotation
      JOINT neck
      {
        OFFSET 0 22.1894 -2.19456
        CHANNELS 3 Zrotation Xrotation Yrotation
        JOINT head
        {
          OFFSET -0.24384 7.07133 1.2192
          CHANNELS 3 Zrotation Xrotation Yrotation
          JOINT leftEye
          {
            OFFSET 4.14528 8.04674 8.04672
            CHANNELS 3 Zrotation Xrotation Yrotation
            End Site
            {
              OFFSET 1 0 0
            }
          }
          JOINT rightEye
          {
            OFFSET -3.6576 8.04674 8.04672
            CHANNELS 3 Zrotation Xrotation Yrotation
            End Site
            {
              OFFSET 1 0 0
            }
          }
        }
      }
      JOINT rCollar
      {
        OFFSET -2.68224 19.2634 -4.8768
        CHANNELS 3 Zrotation Xrotation Yrotation
        JOINT rShldr
        {
          OFFSET -8.77824 -1.95073 1.46304
          CHANNELS 3 Zrotation Xrotation Yrotation
          JOINT rForeArm
          {
            OFFSET -28.1742 -1.7115 0.48768
            CHANNELS 3 Zrotation Xrotation Yrotation
            JOINT rHand
            {
              OFFSET -22.5879 0.773209 7.07136
              CHANNELS 3 Zrotation Xrotation Yrotation
              JOINT rThumb1
              {
                OFFSET -1.2192 -0.487915 3.41376
                CHANNELS 3 Zrotation Xrotation Yrotation
                JOINT rThumb2
                {
                  OFFSET -3.37035 -0.52449 3.41376
                  CHANNELS 3 Zrotation Xrotation Yrotation
                  End Site
                  {
                    OFFSET -1.78271 -1.18214 1.43049
                  }
                }
              }
              JOINT rIndex1
              {
                OFFSET -7.75947 0.938293 5.60832
                CHANNELS 3 Zrotation Xrotation Yrotation
                JOINT rIndex2
                {
                  OFFSET -2.54057 -0.884171 1.56538
                  CHANNELS 3 Zrotation Xrotation Yrotation
                  End Site
                  {
                    OFFSET -1.62519 -0.234802 1.16502
                  }
                }
              }
              JOINT rMid1
              {
                OFFSET -8.24714 1.18213 3.41376
                CHANNELS 3 Zrotation Xrotation Yrotation
                JOINT rMid2
                {
                  OFFSET -3.10165 -0.590103 1.0647
                  CHANNELS 3 Zrotation Xrotation Yrotation
                  End Site
                  {
                    OFFSET -2.48547 -0.328903 0.83742
                  }
                }
              }
              JOINT rRing1
              {
                OFFSET -8.82822 0.546677 1.51678
                CHANNELS 3 Zrotation Xrotation Yrotation
                JOINT rRing2
                {
                  OFFSET -2.60934 -0.819778 -0.0198488
                  CHANNELS 3 Zrotation Xrotation Yrotation
                  End Site
                  {
                    OFFSET -2.33842 -0.294052 0.168128
                  }
                }
              }
              JOINT rPinky1
              {
                OFFSET -8.27202 -0.0477905 -0.4584
                CHANNELS 3 Zrotation Xrotation Yrotation
                JOINT rPinky2
                {
                  OFFSET -1.82734 -0.647385 -0.700984
                  CHANNELS 3 Zrotation Xrotation Yrotation
                  End Site
                  {
                    OFFSET -1.69225 -0.51767 -0.607171
                  }
                }
              }
            }
          }
        }
      }
      JOINT lCollar
      {
        OFFSET 2.68224 19.2634 -4.8768
        CHANNELS 3 Zrotation Xrotation Yrotation
        JOINT lShldr
        {
          OFFSET 8.77824 -1.95073 1.46304
          CHANNELS 3 Zrotation Xrotation Yrotation
          JOINT lForeArm
          {
            OFFSET 28.1742 -1.7115 0.48768
            CHANNELS 3 Zrotation Xrotation Yrotation
            JOINT lHand
            {
              OFFSET 22.5879 0.773209 7.07136
              CHANNELS 3 Zrotation Xrotation Yrotation
              JOINT lThumb1
              {
                OFFSET 1.2192 -0.487915 3.41376
                CHANNELS 3 Zrotation Xrotation Yrotation
                JOINT lThumb2
                {
                  OFFSET 3.37035 -0.52449 3.41376
                  CHANNELS 3 Zrotation Xrotation Yrotation
                  End Site
                  {
                    OFFSET 1.78271 -1.18214 1.43049
                  }
                }
              }
              JOINT lIndex1
              {
                OFFSET 7.75947 0.938293 5.60832
                CHANNELS 3 Zrotation Xrotation Yrotation
                JOINT lIndex2
                {
                  OFFSET 2.54057 -0.884171 1.56538
                  CHANNELS 3 Zrotation Xrotation Yrotation
                  End Site
                  {
                    OFFSET 1.62519 -0.234802 1.16502
                  }
                }
              }
              JOINT lMid1
              {
                OFFSET 8.24714 1.18213 3.41376
                CHANNELS 3 Zrotation Xrotation Yrotation
                JOINT lMid2
                {
                  OFFSET 3.10165 -0.590103 1.0647
                  CHANNELS 3 Zrotation Xrotation Yrotation
                  End Site
                  {
                    OFFSET 2.48547 -0.328903 0.83742
                  }
                }
              }
              JOINT lRing1
              {
                OFFSET 8.82822 0.546677 1.51678
                CHANNELS 3 Zrotation Xrotation Yrotation
                JOINT lRing2
                {
                  OFFSET 2.60934 -0.819778 -0.0198488
                  CHANNELS 3 Zrotation Xrotation Yrotation
                  End Site
                  {
                    OFFSET 2.33842 -0.294052 0.168128
                  }
                }
              }
              JOINT lPinky1
              {
                OFFSET 8.27202 -0.0477905 -0.4584
                CHANNELS 3 Zrotation Xrotation Yrotation
                JOINT lPinky2
                {
                  OFFSET 1.82734 -0.647385 -0.700984
                  CHANNELS 3 Zrotation Xrotation Yrotation
                  End Site
                  {
                    OFFSET 1.69225 -0.51767 -0.607171
                  }
                }
              }
            }
          }
        }
      }
    }
  }
  JOINT rButtock
  {
    OFFSET -8.77824 4.35084 1.2192
    CHANNELS 3 Zrotation Xrotation Yrotation
    JOINT rThigh
    {
      OFFSET 0 -1.70687 -2.19456
      CHANNELS 3 Zrotation Xrotation Yrotation
      JOINT rShin
      {
        OFFSET 0 -36.8199 0.73152
        CHANNELS 3 Zrotation Xrotation Yrotation
        JOINT rFoot
        {
          OFFSET 0.73152 -45.1104 -5.12064
          CHANNELS 3 Zrotation Xrotation Yrotation
          End Site
          {
            OFFSET -1.1221 -3.69964 12.103
          }
        }
      }
    }
  }
  JOINT lButtock
  {
    OFFSET 8.77824 4.35084 1.2192
    CHANNELS 3 Zrotation Xrotation Yrotation
    JOINT lThigh
    {
      OFFSET 0 -1.70687 -2.19456
      CHANNELS 3 Zrotation Xrotation Yrotation
      JOINT lShin
      {
        OFFSET 0 -36.8199 0.73152
        CHANNELS 3 Zrotation Xrotation Yrotation
        JOINT lFoot
        {
          OFFSET -0.73152 -45.1104 -5.12064
          CHANNELS 3 Zrotation Xrotation Yrotation
          End Site
          {
            OFFSET 1.1221 -3.69964 12.103
          }
        }
      }
    }
  }
}
MOTION
Frames:	6
Frame Time:	0.00833333
5.17153 85.0114 -76.2774 0.0 0.0 0.0 0.0256062 -6.19129e-06 0.000728833 0.00706472 8.63207e-06 0.00122381 2.71529e-16 -7.95139e-16 1.0871e-17 8.13775e-16 3.18055e-15 3.41661e-17 -0.0 0.0 0.0 -0.0 0.0 0.0 1.47767e-16 0.0 1.49089e-16 5.13783e-15 1.92573e-16 9.93923e-16 4.90998e-14 -1.43125e-14 -3.18055e-15 5.6681e-13 1.70458e-14 2.22639e-14 1.33365e-12 2.18118e-15 5.08889e-14 2.29755e-12 -6.36111e-15 8.82604e-14 1.3406e-12 5.96354e-15 4.13472e-14 7.73091 5.47488 0.417314 1.33429e-12 1.88845e-15 6.36111e-14 2.90554 0.965183 0.102902 1.34296e-12 2.38542e-15 5.40694e-14 10.2786 0.731801 0.0259123 1.33126e-12 4.77083e-15 5.725e-14 2.22167 -0.733487 -0.20892 1.50419e-16 0.0 -1.49089e-16 4.26688e-16 6.21202e-18 -7.95139e-16 4.9398e-14 1.35174e-14 0.0 5.64225e-13 -2.02015e-14 2.54444e-14 1.33343e-12 -1.47148e-14 6.04305e-14 2.30908e-12 -2.22639e-14 1.00983e-13 1.32788e-12 -1.31198e-14 6.04305e-14 -7.73091 5.47488 -0.417314 1.33375e-12 -1.46107e-14 5.725e-14 -2.90554 0.965183 -0.102902 1.32737e-12 -1.46107e-14 5.64548e-14 -10.2786 0.731801 -0.0259123 1.33683e-12 -1.47101e-14 5.08889e-14 -2.22167 -0.733487 0.20892 -2.03217e-16 0.0 -3.88251e-19 0.512306 -3.13364 -0.0420887 -0.00562807 0.123098 -0.0495528 -0.492806 3.00963 0.117361 2.03217e-16 0.0 3.88251e-19 -0.473318 -3.03453 0.0397102 0.00592193 -0.0564344 0.0521746 0.492498 3.09005 -0.118955
4.93123 83.8291 -77.8137 -0.3947 -2.8092 5.2756 0.41032 -1.00365 -0.375653 1.06747 -1.11874 -0.0725881 -2.96582 0.304329 -1.15162 2.51435 1.50474 -1.6435 -0.0 0.0 0.0 -0.0 0.0 0.0 2.05111e-15 -4.29763e-14 3.64747e-14 22.1595 5.32964 -0.614637 -4.12356 -1.85486 6.46079 0.0225631 3.33306 0.465572 -2.98099e-10 2.53042e-10 1.9891e-10 -5.12607e-10 4.3449e-10 3.46694e-10 -2.98094e-10 2.53044e-10 1.98901e-10 7.73091 5.47488 0.417314 -2.981e-10 2.53043e-10 1.98918e-10 2.90554 0.965183 0.102902 -2.98091e-10 2.53042e-10 1.98912e-10 10.2786 0.731801 0.0259123 -2.98103e-10 2.53045e-10 1.9892e-10 2.22167 -0.733487 -0.20892 2.01827e-15 -4.29735e-14 3.62172e-14 -23.8244 6.10888 -0.114398 3.3378 -1.37541 -5.35655 -0.0283224 3.73452 -0.520832 -1.46198e-10 -4.23743e-10 -2.79469e-10 -2.56222e-10 -7.34073e-10 -4.80487e-10 -1.46202e-10 -4.23741e-10 -2.79466e-10 -7.73091 5.47488 -0.417314 -1.46198e-10 -4.23745e-10 -2.79473e-10 -2.90554 0.965183 -0.102902 -1.46205e-10 -4.23745e-10 -2.79472e-10 -10.2786 0.731801 -0.0259123 -1.46196e-10 -4.23745e-10 -2.79477e-10 -2.22167 -0.733487 0.20892 -2.03217e-16 0.0 -3.88251e-19 0.59324 -4.92276 1.75019 3.16352e-05 4.97192 0.0360183 -0.61311 0.0628805 -2.12642 2.03217e-16 0.0 3.88251e-19 -0.0832977 -4.72523 -1.56257 -0.00126714 4.83302 -0.0385271 0.637337 -0.296226 2.36498
4.94393 83.8285 -77.8109 -0.3212 -2.8629 5.2645 0.803571 -2.06635 -0.774666 2.18597 -2.30294 -0.150882 -6.08874 0.632535 -2.3671 5.26551 3.08827 -3.38142 -0.0 0.0 0.0 -0.0 0.0 0.0 3.68129e-15 -9.17423e-14 7.58301e-14 45.7102 10.9669 -1.28566 -8.03153 -3.73745 13.3132 -0.0128578 6.85318 0.96264 -6.23121e-10 5.13153e-10 4.3359e-10 -1.07131e-09 8.80762e-10 7.55454e-10 -6.23119e-10 5.13153e-10 4.33583e-10 7.73091 5.47488 0.417314 -6.23123e-10 5.13154e-10 4.33594e-10 2.90554 0.965183 0.102902 -6.23116e-10 5.13153e-10 4.33591e-10 10.2786 0.731801 0.0259123 -6.23128e-10 5.13155e-10 4.33605e-10 2.22167 -0.733487 -0.20892 3.60872e-15 -9.17365e-14 7.56158e-14 -48.9845 12.565 -0.237082 6.58732 -2.78891 -11.0279 0.0161648 7.68074 -1.07874 -2.93361e-10 -8.82056e-10 -5.90558e-10 -5.14521e-10 -1.52822e-09 -1.01554e-09 -2.93363e-10 -8.82054e-10 -5.90551e-10 -7.73091 5.47488 -0.417314 -2.9336e-10 -8.8206e-10 -5.90563e-10 -2.90554 0.965183 -0.102902 -2.93369e-10 -8.8206e-10 -5.9056e-10 -10.2786 0.731801 -0.0259123 -2.9336e-10 -8.8206e-10 -5.90564e-10 -2.22167 -0.733487 0.20892 -2.03217e-16 0.0 -3.88251e-19 0.800808 -6.80587 3.658 -0.00993378 10.0991 0.128214 -0.991049 -3.04428 -4.50317 2.03217e-16 0.0 3.88251e-19 0.225085 -6.50369 -3.26725 0.00815529 9.99974 -0.136146 1.10974 -3.85895 5.0044
4.936 83.833 -77.7916 -0.3263 -2.9457 5.1765 1.14015 -3.01043 -1.1298 3.17961 -3.35621 -0.220549 -8.86078 0.911512 -3.45524 7.80234 4.49934 -4.94408 -0.0 0.0 0.0 -0.0 0.0 0.0 5.85779e-15 -1.28929e-13 1.09126e-13 66.8333 15.9814 -1.90978 -11.1379 -5.28215 19.4581 -0.0969278 9.99652 1.41585 -8.96964e-10 7.59122e-10 5.96627e-10 -1.54242e-09 1.30348e-09 1.03991e-09 -8.96964e-10 7.59121e-10 5.96621e-10 7.73091 5.47488 0.417314 -8.96968e-10 7.59124e-10 5.96627e-10 2.90554 0.965183 0.102902 -8.96961e-10 7.59122e-10 5.96627e-10 10.2786 0.731801 0.0259123 -8.96972e-10 7.59124e-10 5.96645e-10 2.22167 -0.733487 -0.20892 5.75398e-15 -1.28921e-13 1.0895e-13 -71.3967 18.3263 -0.359478 9.25156 -3.98222 -16.1049 0.122057 11.1998 -1.58946 -4.4126e-10 -1.2712e-09 -8.38528e-10 -7.73283e-10 -2.20217e-09 -1.44166e-09 -4.41262e-10 -1.2712e-09 -8.38517e-10 -7.73091 5.47488 -0.417314 -4.4126e-10 -1.27121e-09 -8.38534e-10 -2.90554 0.965183 -0.102902 -4.41269e-10 -1.27121e-09 -8.38529e-10 -10.2786 0.731801 -0.0259123 -4.4126e-10 -1.27121e-09 -8.38532e-10 -2.22167 -0.733487 0.20892 -2.03217e-16 0.0 -3.88251e-19 1.09372 -8.471 5.37405 -0.0331945 14.6695 0.21372 -1.54686 -5.79157 -6.64773 2.03217e-16 0.0 3.88251e-19 0.410829 -8.0838 -4.79888 0.0319487 14.6118 -0.226857 1.80992 -7.01145 7.38795
4.93045 83.8333 -77.785 -0.3585 -2.9143 5.1482 1.36323 -3.65849 -1.37391 3.86729 -4.08219 -0.268321 -10.7827 1.06889 -4.22464 9.62194 5.49324 -6.05587 -0.0 0.0 0.0 -0.0 0.0 0.0 9.40005e-15 -1.37166e-13 1.27272e-13 81.6296 19.4467 -2.35293 -13.101 -6.25142 23.7622 -0.186114 12.2004 1.74132 -1.04286e-09 9.69738e-10 5.80553e-10 -1.79451e-09 1.66733e-09 1.01359e-09 -1.04286e-09 9.69736e-10 5.80547e-10 7.73091 5.47488 0.417314 -1.04286e-09 9.69741e-10 5.8055e-10 2.90554 0.965183 0.102902 -1.04286e-09 9.69738e-10 5.80551e-10 10.2786 0.731801 0.0259123 -1.04287e-09 9.69741e-10 5.80572e-10 2.22167 -0.733487 -0.20892 9.28628e-15 -1.37157e-13 1.27123e-13 -86.991 22.3509 -0.466612 10.9853 -4.76198 -19.6627 0.234276 13.6546 -1.95658 -5.91001e-10 -1.48742e-09 -9.287e-10 -1.0332e-09 -2.57563e-09 -1.59549e-09 -5.91002e-10 -1.48742e-09 -9.28687e-10 -7.73091 5.47488 -0.417314 -5.91002e-10 -1.48743e-09 -9.28706e-10 -2.90554 0.965183 -0.102902 -5.9101e-10 -1.48743e-09 -9.287e-10 -10.2786 0.731801 -0.0259123 -5.91002e-10 -1.48743e-09 -9.28703e-10 -2.22167 -0.733487 0.20892 -2.03217e-16 0.0 -3.88251e-19 1.35988 -9.61763 6.57773 -0.0578274 17.848 0.276016 -2.05812 -7.68005 -8.17041 2.03217e-16 0.0 3.88251e-19 0.492 -9.18803 -5.87143 0.0577595 17.8375 -0.293453 2.45566 -9.19778 9.06752
4.92068 83.8292 -77.7878 -0.4207 -2.8578 5.1668 1.43463 -3.88408 -1.46276 4.12698 -4.34947 -0.285531 -11.5222 1.03745 -4.55202 10.3561 5.92484 -6.53514 -0.0 0.0 0.0 -0.0 0.0 0.0 1.61811e-14 -9.53243e-14 1.20835e-13 87.4466 20.7358 -2.48824 -13.8238 -6.60003 25.4462 -0.229194 13.0954 1.87567 -9.82433e-10 1.13676e-09 2.45027e-10 -1.6938e-09 1.95972e-09 4.33207e-10 -9.82435e-10 1.13676e-09 2.45018e-10 7.73091 5.47488 0.417314 -9.82438e-10 1.13676e-09 2.45022e-10 2.90554 0.965183 0.102902 -9.82432e-10 1.13676e-09 2.45024e-10 10.2786 0.731801 0.0259123 -9.82442e-10 1.13676e-09 2.45043e-10 2.22167 -0.733487 -0.20892 1.60941e-14 -9.53169e-14 1.20697e-13 -93.0574 23.9522 -0.552253 11.6429 -5.0568 -21.071 0.287249 14.6194 -2.1039 -7.58213e-10 -1.42636e-09 -7.60281e-10 -1.31995e-09 -2.46704e-09 -1.30294e-09 -7.58213e-10 -1.42635e-09 -7.60268e-10 -7.73091 5.47488 -0.417314 -7.58217e-10 -1.42636e-09 -7.60288e-10 -2.90554 0.965183 -0.102902 -7.58221e-10 -1.42636e-09 -7.60281e-10 -10.2786 0.731801 -0.0259123 -7.58213e-10 -1.42636e-09 -7.60285e-10 -2.22167 -0.733487 0.20892 -2.03217e-16 0.0 -3.88251e-19 1.47872 -10.0534 7.0398 -0.0692686 19.0776 0.300936 -2.28887 -8.39479 -8.7926 2.03217e-16 0.0 3.88251e-19 0.5151 -9.64213 -6.28349 0.0703398 19.1248 -0.321122 2.74402 -10.0867 9.69902
